<?xml version="1.0"?>
<svg xmlns="http://www.w3.org/2000/svg" height="512px" viewBox="-61 0 512 512" width="512px"><g transform="matrix(-1.83697e-16 1 -1 -1.83697e-16 451 61)"><path d="m94.683594 213.777344h-3.46875c-21.921875 0-39.695313-17.773438-39.695313-39.695313v-105c0-22.882812 18.550781-41.429687 41.429688-41.429687 22.882812 0 41.429687 18.546875 41.429687 41.429687v105c0 21.921875-17.769531 39.695313-39.695312 39.695313zm0 0" fill="#ffd0a6" data-original="#FFD0A6" class=""/><path d="m99.160156 504.394531v-46.179687c0-41.261719-13.5625-81.382813-38.605468-114.179688l-24.25-31.765625c-18.617188-24.382812-28.699219-54.207031-28.699219-84.882812 0-18.550781 1.75-37.0625 5.226562-55.285157.996094-5.222656 1.992188-10.445312 2.988281-15.671874 3.707032-19.421876 21.75-32.769532 41.394532-30.507813v-58.226563l305.148437 22.304688 20.59375 44.863281v107.371094c0 63.558594-25.0625 124.550781-69.746093 169.75-6.6875 6.765625-10.441407 15.898437-10.441407 25.414063v66.996093" fill="#ffd0a6" data-original="#FFD0A6" class=""/><g fill="#e8b182"><path d="m71.796875 174.082031v-105c0-19.382812 13.3125-35.652343 31.292969-40.175781-3.246094-.816406-6.640625-1.253906-10.140625-1.253906-22.878907 0-41.429688 18.550781-41.429688 41.429687v105c0 21.921875 17.773438 39.695313 39.695313 39.695313h3.46875c2.886718 0 5.695312-.316406 8.40625-.898438-17.886719-3.859375-31.292969-19.757812-31.292969-38.796875zm0 0" data-original="#E8B182" class=""/><path d="m217.238281 83.5v105.007812c0 20.933594-16.210937 38.078126-36.761719 39.589844-11.417968-9.265625-25.113281-15.816406-40.128906-18.664062-3.792968-6.074219-5.972656-13.242188-5.972656-20.925782v-105.007812c0-22.871094 18.554688-41.425781 41.4375-41.425781 11.4375 0 21.796875 4.632812 29.289062 12.136719 7.492188 7.5 12.136719 17.851562 12.136719 29.289062zm0 0" data-original="#E8B182" class=""/><path d="m260.402344 228.199219h-3.46875c-21.921875 0-39.695313-17.769531-39.695313-39.695313v-105c0-22.878906 18.546875-41.429687 41.429688-41.429687 22.878906 0 41.429687 18.550781 41.429687 41.429687v105.003906c0 21.921876-17.773437 39.691407-39.695312 39.691407zm0 0" data-original="#E8B182" class=""/><path d="m343.261719 216.265625h-3.472657c-21.921874 0-39.691406-17.769531-39.691406-39.695313v-69.007812c0-22.882812 18.546875-41.429688 41.429688-41.429688 22.878906 0 41.429687 18.546876 41.429687 41.429688v69.007812c-.003906 21.921876-17.773437 39.695313-39.695312 39.695313zm0 0" data-original="#E8B182" class=""/></g><path d="m177.542969 193.726562h-3.46875c-21.921875 0-39.695313-17.769531-39.695313-39.691406v-105c0-22.882812 18.550782-41.429687 41.429688-41.429687 22.882812 0 41.429687 18.546875 41.429687 41.429687v105c0 21.921875-17.769531 39.691406-39.695312 39.691406zm0 0" fill="#ffd0a6" data-original="#FFD0A6" class=""/><path d="m154.65625 154.035156v-105c0-19.382812 13.3125-35.652344 31.289062-40.175781-3.242187-.816406-6.636718-1.253906-10.136718-1.253906-22.878906 0-41.429688 18.546875-41.429688 41.429687v105c0 21.921875 17.769532 39.695313 39.695313 39.695313h3.46875c2.886719 0 5.695312-.316407 8.402343-.902344-17.882812-3.855469-31.289062-19.757813-31.289062-38.792969zm0 0" fill="#e8b182" data-original="#E8B182" class=""/><path d="m260.402344 193.726562h-3.46875c-21.921875 0-39.695313-17.769531-39.695313-39.691406v-105c0-22.882812 18.546875-41.429687 41.429688-41.429687 22.878906 0 41.429687 18.546875 41.429687 41.429687v105c0 21.921875-17.773437 39.691406-39.695312 39.691406zm0 0" fill="#ffd0a6" data-original="#FFD0A6" class=""/><path d="m237.515625 154.035156v-105c0-19.382812 13.3125-35.652344 31.289063-40.175781-3.242188-.816406-6.636719-1.253906-10.136719-1.253906-22.882813 0-41.429688 18.546875-41.429688 41.429687v105c0 21.921875 17.769531 39.695313 39.695313 39.695313h3.46875c2.886718 0 5.695312-.316407 8.402344-.902344-17.882813-3.855469-31.289063-19.757813-31.289063-38.792969zm0 0" fill="#e8b182" data-original="#E8B182" class=""/><path d="m343.261719 181.792969h-3.472657c-21.921874 0-39.691406-17.769531-39.691406-39.691407v-69.011718c0-22.882813 18.546875-41.429688 41.429688-41.429688 22.878906 0 41.429687 18.546875 41.429687 41.429688v69.011718c-.003906 21.921876-17.773437 39.691407-39.695312 39.691407zm0 0" fill="#ffd0a6" data-original="#FFD0A6" class=""/><path d="m320.375 142.101562v-69.011718c0-19.382813 13.3125-35.652344 31.289062-40.175782-3.246093-.816406-6.640624-1.253906-10.136718-1.253906-22.882813 0-41.429688 18.546875-41.429688 41.429688v69.011718c0 21.921876 17.769532 39.691407 39.691406 39.691407h3.472657c2.882812 0 5.695312-.3125 8.402343-.898438-17.882812-3.855469-31.289062-19.757812-31.289062-38.792969zm0 0" fill="#e8b182" data-original="#E8B182" class=""/><path d="m99.160156 504.394531v-46.179687c0-41.261719-13.5625-81.382813-38.605468-114.179688l-24.25-31.765625c-18.617188-24.382812-28.699219-54.207031-28.699219-84.882812 0-18.550781 1.75-37.0625 5.226562-55.285157.996094-5.222656 1.992188-10.445312 2.988281-15.671874 3.707032-19.421876 21.75-32.769532 41.394532-30.507813 35.589844 4.097656 71.523437 4.136719 107.121094.121094 20.257812-2.28125 38.855468 11.425781 42.675781 31.453125l.148437.773437c4.261719 22.347657-11.425781 43.546875-34.03125 46.09375-21.226562 2.394531-42.5625 3.550781-63.894531 3.46875" fill="#ffd0a6" data-original="#FFD0A6" class=""/><path d="m104.15625 344.03125c25.042969 32.796875 38.605469 72.917969 38.605469 114.179688v46.183593h-43.59375v-46.183593c0-41.261719-13.566407-81.382813-38.609375-114.179688l-24.25-31.765625c-18.617188-24.382813-28.703125-54.210937-28.703125-84.878906 0-9.277344.433593-18.542969 1.308593-27.769531.871094-9.226563 2.1875-18.414063 3.921876-27.515626.996093-5.222656 1.988281-10.445312 2.992187-15.675781 3.699219-19.425781 21.746094-32.769531 41.386719-30.507812 8.585937.984375 17.203125 1.746093 25.820312 2.25-11.859375 4.554687-21.085937 14.984375-23.613281 28.257812-1.003906 5.230469-1.996094 10.453125-2.988281 15.675781-3.480469 18.21875-5.234375 36.730469-5.234375 55.285157 0 15.339843 2.527343 30.457031 7.371093 44.800781 4.847657 14.335938 12.027344 27.882812 21.332032 40.078125zm0 0" fill="#e8b182" data-original="#E8B182" class=""/><path d="m341.523438 24.054688c-13.65625 0-26.023438 5.621093-34.925782 14.664062-4.75-22.101562-24.433594-38.71875-47.929687-38.71875-17.414063 0-32.730469 9.132812-41.429688 22.855469-8.703125-13.722657-24.015625-22.855469-41.429687-22.855469-22.359375 0-41.257813 15.050781-47.132813 35.550781-8.949219-9.53125-21.652343-15.503906-35.726562-15.503906-27.035157 0-49.03125 21.996094-49.03125 49.035156v49.925781c-17.554688 3.617188-32.046875 17.550782-35.566407 36l-2.992187 15.667969c-3.554687 18.652344-5.359375 37.730469-5.359375 56.710938 0 32.15625 10.746094 63.941406 30.261719 89.496093 1.496093 1.960938 3.757812 2.992188 6.046875 2.992188 1.609375 0 3.230468-.507812 4.609375-1.5625 3.339843-2.546875 3.976562-7.320312 1.429687-10.65625-17.5-22.921875-27.140625-51.429688-27.140625-80.269531 0-18.027344 1.714844-36.148438 5.089844-53.859375l2.992187-15.671875c2.949219-15.464844 17.472657-26.171875 33.054688-24.378907 36.105469 4.15625 72.726562 4.199219 108.84375.125 16.210938-1.824218 31.296875 9.292969 34.351562 25.320313l.148438.773437c1.65625 8.683594-.320312 17.382813-5.5625 24.5-5.261719 7.140626-13.019531 11.621094-21.847656 12.617188-19.242188 2.167969-38.789063 3.316406-58.183594 3.414062h-4.863281c-2.847657 0-5.453125 1.59375-6.757813 4.128907-1.300781 2.53125-1.082031 5.582031.574219 7.898437 1.421875 1.992188 3.714844 3.175782 6.160156 3.1875 1.640625.003906 3.277344.003906 4.921875-.003906h9.148438c5.277344 0 10.542968.492188 15.652344 1.46875 13.394531 2.539062 26.105468 8.453125 36.761718 17.101562 19.613282 15.890626 30.863282 39.472657 30.863282 64.707032 0 4.199218 3.402343 7.605468 7.601562 7.605468s7.605469-3.40625 7.605469-7.605468c0-29.84375-13.304688-57.734375-36.492188-76.519532-4.613281-3.742187-9.550781-7.054687-14.738281-9.894531 1.152344-.121093 2.300781-.246093 3.449219-.378906 12.894531-1.453125 24.699219-8.269531 32.386719-18.707031 4.042968-5.484375 6.777343-11.769532 8.117187-18.339844 7.71875 15.65625 23.84375 26.457031 42.445313 26.457031h3.472656c19.425781 0 36.148437-11.777343 43.421875-28.566406 8.679687 10.167969 21.578125 16.632813 35.964843 16.632813h3.472657c12.375 0 23.648437-4.785157 32.089843-12.59375v26.746093c0 4.199219 3.402344 7.605469 7.601563 7.605469s7.605469-3.40625 7.605469-7.605469v-130.460937c0-27.039063-21.996094-49.035156-49.035156-49.035156zm-282.398438 94.425781v-49.398438c0-18.652343 15.171875-33.824219 33.824219-33.824219 18.652343 0 33.824219 15.171876 33.824219 33.824219v52.066407c-22.574219.75-45.210938-.136719-67.648438-2.667969zm104.359375.007812c-7.148437.808594-14.320313 1.4375-21.5 1.910157v-71.363282c0-18.652344 15.171875-33.828125 33.824219-33.828125s33.824218 15.175781 33.824218 33.828125v93.558594c-8.863281-16.210938-26.972656-26.273438-46.148437-24.105469zm129.007813 35.546875c0 17.691406-14.394532 32.089844-32.089844 32.089844h-3.46875c-17.695313 0-32.089844-14.398438-32.089844-32.089844v-105c0-18.652344 15.171875-33.828125 33.824219-33.828125 18.652343 0 33.824219 15.175781 33.824219 33.828125zm50.769531 20.15625h-3.472657c-17.691406 0-32.089843-14.398437-32.089843-32.089844v-69.011718c0-18.652344 15.175781-33.824219 33.828125-33.824219 18.648437 0 33.824218 15.171875 33.824218 33.824219v69.011718c0 17.691407-14.394531 32.089844-32.089843 32.089844zm0 0" data-original="#000000" class="active-path" style="fill:#000000"/><path d="m57.722656 327.792969c-2.546875-3.335938-7.320312-3.976563-10.65625-1.429688-3.339844 2.550781-3.976562 7.320313-1.429687 10.660157l8.875 11.625c23.886719 31.289062 37.042969 70.199218 37.042969 109.566406v46.179687c0 4.199219 3.40625 7.605469 7.605468 7.605469 4.199219 0 7.601563-3.40625 7.601563-7.605469v-46.179687c0-42.683594-14.261719-84.871094-40.164063-118.796875zm0 0" data-original="#000000" class="active-path" style="fill:#000000"/><path d="m382.957031 225.351562c-4.199219 0-7.605469 3.402344-7.605469 7.601563v9.28125c0 30.632813-5.902343 60.535156-17.542968 88.871094-11.644532 28.335937-28.46875 53.75-50.003906 75.53125-8.148438 8.246093-12.636719 19.167969-12.636719 30.761719v66.996093c0 4.199219 3.402343 7.605469 7.601562 7.605469s7.605469-3.40625 7.605469-7.605469v-66.996093c0-7.5625 2.925781-14.691407 8.242188-20.066407 22.941406-23.203125 40.859374-50.269531 53.257812-80.449219 12.398438-30.175781 18.6875-62.023437 18.6875-94.648437v-9.28125c-.003906-4.199219-3.40625-7.601563-7.605469-7.601563zm0 0" data-original="#000000" class="active-path" style="fill:#000000"/></g> </svg>
